name rise42.5664peak47.7979fall81.9185.mot
datacolumns 19
datarows 15
range 9.48662800000000 9.50996100000000
endheader
time	ground_force1_vx	ground_force1_vy	ground_force1_vz	ground_force1_px	ground_force1_py	ground_force1_pz	ground_force2_vx	ground_force2_vy	ground_force2_vz	ground_force2_px	ground_force2_py	ground_force2_pz	ground_torque1_x	ground_torque1_y	ground_torque1_z	ground_torque2_x	ground_torque2_y	ground_torque2_z	
9.48662800000000	62.00690600000000	791.58116600000005	56.78502400000000	0.28213300000000	0.00000000000000	0.10324000000000	0.00000000000000	0.00000000000000	0.00000000000000	0.00000000000000	0.00000000000000	0.00000000000000	0.00000000000000	18.40168500000000	0.00000000000000	0.00000000000000	0.00000000000000	0.00000000000000	
9.48829300000000	61.35344100000000	794.26871700000004	56.82145600000000	0.28129100000000	0.00000000000000	0.10321100000000	0.00000000000000	0.00000000000000	0.00000000000000	0.00000000000000	0.00000000000000	0.00000000000000	0.00000000000000	18.40912700000000	0.00000000000000	0.00000000000000	0.00000000000000	0.00000000000000	
9.48996700000000	60.69611200000000	796.79282799999999	56.84900500000000	0.28046900000000	0.00000000000000	0.10318200000000	0.00000000000000	0.00000000000000	0.00000000000000	0.00000000000000	0.00000000000000	0.00000000000000	0.00000000000000	18.41341100000000	0.00000000000000	0.00000000000000	0.00000000000000	0.00000000000000	
9.49163100000000	60.03545800000000	799.15167699999995	56.86791800000000	0.27966600000000	0.00000000000000	0.10315300000000	0.00000000000000	0.00000000000000	0.00000000000000	0.00000000000000	0.00000000000000	0.00000000000000	0.00000000000000	18.41461700000000	0.00000000000000	0.00000000000000	0.00000000000000	0.00000000000000	
9.49329500000000	59.37196100000000	801.34367799999995	56.87839800000000	0.27888000000000	0.00000000000000	0.10312500000000	0.00000000000000	0.00000000000000	0.00000000000000	0.00000000000000	0.00000000000000	0.00000000000000	0.00000000000000	18.41280000000000	0.00000000000000	0.00000000000000	0.00000000000000	0.00000000000000	
9.49496200000000	58.70605200000000	803.36748599999999	56.88060300000000	0.27810900000000	0.00000000000000	0.10309700000000	0.00000000000000	0.00000000000000	0.00000000000000	0.00000000000000	0.00000000000000	0.00000000000000	0.00000000000000	18.40799300000000	0.00000000000000	0.00000000000000	0.00000000000000	0.00000000000000	
9.49663500000000	58.03811000000000	805.22201399999994	56.87464900000000	0.27735000000000	0.00000000000000	0.10306900000000	0.00000000000000	0.00000000000000	0.00000000000000	0.00000000000000	0.00000000000000	0.00000000000000	0.00000000000000	18.40020600000000	0.00000000000000	0.00000000000000	0.00000000000000	0.00000000000000	
9.49829200000000	57.36847000000000	806.90644299999997	56.86061300000000	0.27660300000000	0.00000000000000	0.10304200000000	0.00000000000000	0.00000000000000	0.00000000000000	0.00000000000000	0.00000000000000	0.00000000000000	0.00000000000000	18.38943000000000	0.00000000000000	0.00000000000000	0.00000000000000	0.00000000000000	
9.49996400000000	56.69742100000000	808.42023300000005	56.83853700000000	0.27586500000000	0.00000000000000	0.10301500000000	0.00000000000000	0.00000000000000	0.00000000000000	0.00000000000000	0.00000000000000	0.00000000000000	0.00000000000000	18.37563800000000	0.00000000000000	0.00000000000000	0.00000000000000	0.00000000000000	
9.50163200000000	56.02521800000000	809.76312700000005	56.80843000000000	0.27513300000000	0.00000000000000	0.10298900000000	0.00000000000000	0.00000000000000	0.00000000000000	0.00000000000000	0.00000000000000	0.00000000000000	0.00000000000000	18.35878700000000	0.00000000000000	0.00000000000000	0.00000000000000	0.00000000000000	
9.50329400000000	55.35207600000000	810.93516599999998	56.77027300000000	0.27440600000000	0.00000000000000	0.10296400000000	0.00000000000000	0.00000000000000	0.00000000000000	0.00000000000000	0.00000000000000	0.00000000000000	0.00000000000000	18.33882000000000	0.00000000000000	0.00000000000000	0.00000000000000	0.00000000000000	
9.50496300000000	54.67818500000000	811.93668900000000	56.72402000000000	0.27368200000000	0.00000000000000	0.10294000000000	0.00000000000000	0.00000000000000	0.00000000000000	0.00000000000000	0.00000000000000	0.00000000000000	0.00000000000000	18.31566900000000	0.00000000000000	0.00000000000000	0.00000000000000	0.00000000000000	
9.50663100000000	54.00370400000000	812.76833799999997	56.66960300000000	0.27295900000000	0.00000000000000	0.10291700000000	0.00000000000000	0.00000000000000	0.00000000000000	0.00000000000000	0.00000000000000	0.00000000000000	0.00000000000000	18.28925300000000	0.00000000000000	0.00000000000000	0.00000000000000	0.00000000000000	
9.50829700000000	53.32877200000000	813.43106599999999	56.60693800000000	0.27223400000000	0.00000000000000	0.10289500000000	0.00000000000000	0.00000000000000	0.00000000000000	0.00000000000000	0.00000000000000	0.00000000000000	0.00000000000000	18.25948700000000	0.00000000000000	0.00000000000000	0.00000000000000	0.00000000000000	
9.50996100000000	52.65350800000000	813.92613600000004	56.53592600000000	0.27150600000000	0.00000000000000	0.10287500000000	0.00000000000000	0.00000000000000	0.00000000000000	0.00000000000000	0.00000000000000	0.00000000000000	0.00000000000000	18.22627900000000	0.00000000000000	0.00000000000000	0.00000000000000	0.00000000000000	
